<svg width="144" height="224" viewBox="0 0 144 224" fill="none" xmlns="http://www.w3.org/2000/svg">
<g clip-path="url(#clip0_94_94)">
<path d="M35.2653 62.7148C16.6854 89.1826 -21.9438 75.2469 15.1218 132.602C31.7094 158.266 54.6349 215.36 79.5946 221.49C100.271 226.572 85.0645 172.52 130.293 162.795C164.483 155.443 123.422 121.301 132.547 87.6122C141.672 53.9235 149.935 10.4522 116.174 1.34781C82.408 -7.75654 55.3304 34.1287 35.2653 62.7095V62.7148Z" fill="#33597A"/>
<path d="M36.2328 69.2418C19.7342 96.2731 -11.1714 84.4192 16.3089 139.191C28.6031 163.697 58.1595 216.294 78.2716 221.115C94.9323 225.111 71.5362 175.139 108.999 163.322C137.321 154.39 105.428 122.715 114.553 89.0313C123.678 55.3427 132.584 12.0435 105.422 4.72353C78.2611 -2.60169 54.0492 40.0557 36.2328 69.247V69.2418Z" fill="#20384D"/>
<path d="M65.559 36.6278C71.693 41.1773 79.1867 41.7826 85.6606 39.0591C82.2511 43.9008 76.8125 47.9495 70.1085 49.6087C67.5043 45.513 66.0139 40.9947 65.559 36.6226V36.6278Z" fill="#C8F8FA"/>
<path d="M117.152 49.6923C109.329 50.7044 102.18 47.6053 97.5836 42.0801C98.3419 47.9809 101.344 54.1688 106.667 58.8696C111.044 56.5427 114.605 53.3079 117.152 49.6923Z" fill="#C8F8FA"/>
<path d="M96.2814 85.1548C93.2902 98.5688 88.7825 83.2505 79.4743 81.1792C70.166 79.1131 59.5713 91.0714 62.5677 77.6627C64.4242 69.3357 69.3032 59.8348 74.3809 59.2453C78.261 58.7966 77.0321 67.3009 82.7374 68.7409C88.8243 70.2748 89.3943 61.1027 93.1386 63.0592C97.7561 65.4696 98.1849 76.6088 96.2814 85.1548Z" fill="#C8F8FA"/>
</g>
<defs>
<clipPath id="clip0_94_94">
<rect width="144" height="224" fill="white"/>
</clipPath>
</defs>
</svg>
