<svg width="44" height="86" viewBox="0 0 44 86" fill="none" xmlns="http://www.w3.org/2000/svg">
<g clip-path="url(#clip0_94_113)">
<path d="M35.2693 31.7435C39.0527 42.4123 50.7361 40.5262 37.0933 57.6886C30.9879 65.3652 21.3518 83.5276 13.9646 83.7436C7.84453 83.9231 15.1292 66.2296 2.89283 59.3514C-6.35864 54.1507 7.13034 45.3973 6.41615 32.9374C5.70197 20.4776 12.8329 3.77662 22.8718 3.20161C32.9143 2.6266 31.1856 20.2249 35.273 31.7471L35.2693 31.7435Z" fill="#5696CF"/>
<path d="M34.6321 33.9483C37.7965 44.6538 47.1835 42.8995 36.3901 59.8972C31.5593 67.5005 22.0294 85.6555 16.0815 85.791C11.1555 85.9009 18.8028 68.1891 8.87374 61.1754C1.36928 55.8757 12.1297 47.2799 11.4155 34.82C10.7013 22.3602 15.7446 7.60032 23.8204 7.13884C31.8962 6.67737 31.215 22.3895 34.6321 33.952V33.9483Z" fill="#365D80"/>
<path d="M17.129 22.8363C13.2761 22.829 15.3198 16.5844 17.7443 17.848C19.7734 18.9065 19.9931 22.829 17.129 22.8363C18.6929 22.8363 15.5688 22.8363 17.129 22.8363Z" fill="#C8F8FA"/>
<path d="M26.5014 22.774C22.74 23.5981 23.3846 17.0605 26.0216 17.771C28.2337 18.368 29.2959 22.1477 26.5014 22.774C28.0286 22.4334 24.9778 23.1073 26.5014 22.774Z" fill="#C8F8FA"/>
<path d="M22.4763 26.8357C22.4763 27.9417 21.1871 28.8391 20.396 28.8391C19.6049 28.8391 18.4768 27.9417 18.4768 26.8357C18.4768 25.7296 19.6049 24.8323 20.396 24.8323C21.1871 24.8323 22.4763 25.7296 22.4763 26.8357Z" fill="#C8F8FA"/>
</g>
<defs>
<clipPath id="clip0_94_113">
<rect width="44" height="86" fill="white"/>
</clipPath>
</defs>
</svg>
