<svg width="120" height="195" viewBox="0 0 120 195" fill="none" xmlns="http://www.w3.org/2000/svg">
<g clip-path="url(#clip0_94_107)">
<path d="M90.8562 69.1522C105.216 89.6576 135.073 78.8604 106.424 123.296C93.6029 143.178 78.0222 194.359 61.9051 195.445C45.4828 196.55 52.3608 154.222 17.4056 146.686C-9.02044 140.99 22.7158 114.538 15.6644 88.4433C8.61297 62.3482 2.2233 28.6683 28.3184 21.6169C54.4136 14.5654 75.3462 47.0117 90.853 69.1522H90.8562Z" fill="#42739E"/>
<path d="M90.1109 74.2087C102.864 95.1478 126.749 85.9665 105.508 128.397C96.0058 147.383 78.5523 191.539 63.007 195.278C50.1313 198.375 62.8207 156.25 33.8664 147.091C11.9764 140.168 36.626 115.634 29.5745 89.5388C22.5231 63.4436 15.6387 29.8987 36.6324 24.2254C57.6261 18.5522 76.3389 51.5991 90.1109 74.2087Z" fill="#2D4E6B"/>
<path d="M66.5761 51.824C61.7349 51.808 57.6871 54.3137 55.4127 58.1398C55.3259 54.3844 56.5692 50.2692 59.3608 46.9025C62.2328 48.014 64.6936 49.7616 66.5761 51.824Z" fill="#C8F8FA"/>
<path d="M29.475 65.943C33.0794 62.4831 37.8917 61.378 42.3186 62.4735C39.71 59.7461 35.8454 57.7126 31.3607 57.3142C30.0083 60.1508 29.4108 63.1417 29.475 65.9462V65.943Z" fill="#C8F8FA"/>
<path d="M35.5947 71.3432C34.8077 70.2574 33.5837 70.7425 34.0238 72.3198C36.5842 81.4915 48.9298 92.2662 58.0051 89.3846C67.0804 86.503 68.7541 71.2211 66.8909 61.8824C66.5664 60.2537 64.7321 59.8553 64.716 61.1949C64.6293 68.4295 61.0891 75.3749 53.816 77.6847C46.5461 79.9945 39.8352 77.2028 35.5915 71.3464L35.5947 71.3432Z" fill="#C8F8FA"/>
</g>
<defs>
<clipPath id="clip0_94_107">
<rect width="120" height="195" fill="white"/>
</clipPath>
</defs>
</svg>
