<svg width="442" height="195" viewBox="0 0 442 195" fill="none" xmlns="http://www.w3.org/2000/svg">
<path d="M199.441 33.775L187.889 35.2944L186.867 22.7637L178.546 23.4709L179.795 36.0734L168.015 36.4491L168.684 44.2836L180.701 43.2062L182.761 72.9804L191.082 72.2732L188.557 42.5929L200.11 41.6094L199.441 33.775Z" fill="#14222F"/>
<path d="M442 52.1732V72.2787L419.292 62.1845L390.043 127.965L371.6 119.766L402.126 54.2009L375.247 42.5984L382.971 25.2389L408.646 38.0458L420.392 10.0341L438.834 18.2387L425.806 46.0239L442 52.1732Z" fill="#14222F"/>
<path d="M22.995 69.0962L38.2385 109.628L27.0173 113.689L12.7075 72.8974L0 78.0633V66.4332L9.3262 63.295L2.84538 46.9299L14.0666 42.8635L19.7519 60.0518L35.4981 53.3997L39.3214 63.9635L22.995 69.0962Z" fill="#14222F"/>
<path d="M442 142.756V195H0V132.634C8.40905 116.655 14.0114 94.1742 31.3765 85.279C49.4432 76.0301 78.8086 90.7046 101.384 84.5442C113.809 81.1518 121.583 54.571 135.081 52.2671C147.866 50.0847 164.12 72.5163 177.684 71.4057C190.673 70.3449 202.988 45.5211 216.541 45.5211C224.856 45.5211 232.475 70.0245 240.586 70.4333C248.907 70.8477 258.239 61.0243 266.305 61.8475C274.604 62.6928 277.537 75.3174 288.355 75.3174C317.102 75.3174 349.351 63.389 372.716 72.3837C400.767 83.174 412.115 117.33 429.983 133.103C433.773 136.452 437.845 139.639 442 142.756Z" fill="#14222F"/>
<path d="M106.826 187.624C86.0795 178 63.7143 172.939 63.7143 162.474C63.7143 157.618 70.2006 150.176 67.6536 148.767C64.8801 147.225 58.3274 157.463 54.7306 157.391C50.6477 157.308 50.7526 147.822 48.7636 145.872C47.1282 144.264 37.6805 143.479 39.5314 138.137C40.8187 134.429 47.6531 129.208 45.0564 127.484C42.7745 125.965 35.1058 134.932 32.1113 134.131C28.1664 133.076 30.6858 124.076 29.846 122.711C29.0946 121.484 23.3542 117.755 28.8571 114.932C33.8682 112.368 42.1226 122.081 48.4819 122.241C54.0621 122.379 60.9297 112.208 66.9961 113.07C72.8305 113.893 77.6925 125.744 83.5048 126.065C89.5934 126.396 94.3946 115.296 99.9307 113.782C103.34 112.854 112.064 119.081 114.986 115.639C117.406 112.788 111.008 102.655 113.362 99.3125C115.727 95.9588 126.677 99.5888 129.224 96.8594C132.241 93.6273 130.506 82.0137 134.153 81.3894C137.711 80.7817 139.816 92.3786 143.783 94.5444C147.037 96.329 156.225 89.3344 159.595 91.7156C162.921 94.0693 160.418 105.782 163.717 107.6C167.595 109.733 173.618 100.766 177.236 100.467C180.784 100.18 188.226 107.904 191.712 105.059C194.613 102.688 190.121 91.5775 193.027 88.699C195.944 85.8094 206.11 91.2681 209.083 89.0084C212.619 86.3232 212.862 74.566 216.541 74.566C219.166 74.566 221.088 87.0857 226.392 89.7819C230.044 91.6328 238.973 83.8646 243.155 85.837C247.271 87.7818 247.625 99.865 251.669 101.014C256.459 102.379 260.924 92.2626 264.719 91.1244C267.443 90.3123 279.278 101.042 292.864 101.644C301.019 102.009 311.024 91.5941 320.395 92.4339C329.5 93.2571 337.384 105.263 345.743 106.523C356.523 108.141 368.711 99.4893 374.7 101.793C382.877 104.942 376.523 112.595 373.717 118.374C371.578 122.766 376.645 133.65 372.396 138.639C368.396 143.336 355.329 141.684 352.6 146.225C348.948 152.292 356.18 156.629 361.158 161.021C368.915 167.872 361.451 169.508 354.832 171.231C350.539 172.347 346.721 183.801 340.522 184.768C334.804 185.663 325.892 176.309 321.218 178.364C315.82 180.734 319.008 188.884 319.317 195H118.053C114.351 192.028 110.66 189.403 106.826 187.624Z" fill="#1C3042"/>
</svg>
